<?xml version="1.0" encoding="utf-8"?>
<!-- Generator: Adobe Illustrator 22.0.1, SVG Export Plug-In . SVG Version: 6.00 Build 0)  -->
<svg version="1.1" id="Layer_1" xmlns="http://www.w3.org/2000/svg" xmlns:xlink="http://www.w3.org/1999/xlink" x="0px" y="0px"
	 viewBox="0 0 438.5 425.8" style="enable-background:new 0 0 438.5 425.8;" xml:space="preserve">
<g>
	<path d="M440.5,240.5c0,3.8,0,7.6,0,11.4c-1.3,2.1-2.2,4.9-4.1,6.1c-7.8,5-7.4,12.1-7.5,19.9c-0.1,5.2-2.5,11.3-5.9,15.4
		C415.2,303,405,311,397.8,321c-5.2,7.2-9.2,13.2-19.4,11.2c-1.5-0.3-4.1,1-5.1,2.3c-5.9,8-10.2,17.1-20.6,21.4
		c-5.9,2.4-11.1,6.8-16.1,10.8c-2.5,2-4.8,5.1-5.5,8c-4,16.5-12.2,23.7-29.4,25.6c-3.6,0.4-8.5,2.8-9.8,5.6
		c-5,10.6-13.6,13.1-24.1,11.6c-7.4-1-13.6-1-20.4,3.9c-8.1,5.9-45.9,0.4-54-5.9c-2.6-2-6.1-2.9-9.2-4.3c-4.8-2.2-10.6-3.6-14.3-6.9
		c-9.6-8.6-19.4-15.7-33.2-16.4c-4-0.2-7.9-2.5-12-3.5c-3.7-0.9-7.7-2.3-11.3-1.9c-10.8,1.3-20.4,0.7-29.2-6.9
		c-5.1-4.3-11.7-7.4-18.1-9.8c-9.9-3.6-16.6-8.8-18.7-19.7c-0.8-4-5-8.7-8.9-10.7c-8.2-4.2-12.4-9.3-11.9-18.6
		c0.2-4-2.6-8.1-3.5-12.3c-2.1-10.4-6.7-21.3-4.9-31.2c1.3-7.2,10.5-13-1.8-18.8c-0.3-0.1,0.2-1.7,0.1-2.5
		c-0.3-10.5-0.5-21-1.3-31.5c-0.1-2-2.5-4.1-4.3-5.6c-9.9-8.1-14.3-20.9-7.6-31.4c5.3-8.4,4.5-15.8,2.5-24c-2-8.1,1.7-13.8,7.5-19.2
		c3.1-2.9,6.2-7.4,6.5-11.3c0.7-11.8,10.4-18,17.5-24.2c9.9-8.6,14.7-13.3,13.3-23.7c6.6,0.4,13.6,0.6,20.6,1.3
		c9.2,1,14-2.6,15.7-11.4c0.5-2.9,2.4-6.4,4.8-7.9c9.7-6.3,17.1-13.9,21.2-24.8c1.2-3.2,6.3-5.2,9.7-7.4c6.2-4.1,14-6.8,18.4-12.2
		c8.9-11.1,19.9-9.9,30.9-6.8c6.4,1.8,10.6,1.4,14.4-3.5c5.3-6.9,11-7.3,19.5-4.4c10.6,3.6,22.2,6.2,33.7,2.2c2.1,2.4,4,5.4,6.7,7.5
		c14.1,10.8,28.3,21.2,47.9,19.6c6-0.5,12.1,0.7,18.1,0.3c11.4-0.7,22.7-0.6,29.8,9.8c4.3,6.3,9.7,7.3,16.6,7.1
		c12.8-0.3,19.8,5.6,23.2,17.4c0.8,2.7,3.7,5,6.1,7.1c3.5,3.2,8.4,5.4,10.8,9.2c3.6,5.7,5.8,12.4,8.2,18.8c1.4,3.8,2.4,7.9,3.2,11.9
		c0.9,4.4,1.3,8.9,1.8,13.4c0.6,5.2,1.3,10.5,1.7,15.7c0.4,4.8-1.3,11.2,1.3,14.1c6.2,6.8,5.7,14.3,6.6,22.1
		c0.5,4.3,2.1,9.7,5.3,12.2c10.7,8.2,12.1,18.4,10.9,30.5C437.2,228.5,439.5,234.6,440.5,240.5z M178.2,374.5
		c-0.4,1.1-0.8,2.1-1.2,3.2c7.1,2.8,14.1,6.6,21.5,8c8.3,1.6,17.4,2.5,25.6,1c13.6-2.6,28.5-2.5,39.7-12.8c1.1-1,4.1,0.2,5.7-0.7
		c3.6-2,8-3.9,10-7.1c4.1-6.7,7.9-12.8,16.7-14.7c2.4-0.5,5.7-4.9,5.6-7.4c-0.6-10.6,3-19,10.2-26.7c1.8-1.9,1.2-6,1.3-9.1
		c0.2-7,0.3-13.9,0.3-20.9c0-3.1,0.9-6.8-0.5-9.1c-7.4-12.3-9.9-26.8-20.4-38c-5.2-5.5-16.3-13.7-25.4-11.5
		c-1.9-14.7-14.5-11.5-27.4-13.9c4.4,8.5,8.1,15.4,11.4,22.4c1.5,3.4,2.1,7.1,3,10.7c1,4.2,2.6,8.3,2.9,12.5
		c0.3,6.3,0.1,12.7-0.6,18.9c-0.3,3.1-3.4,6-3.2,8.9c0.4,9.6-1.5,18-8.6,25.1c-2.5,2.6-4.6,6.2-5.4,9.6c-2.2,9.3-8,15.3-16.1,20.5
		c-4.1,2.6-8,7.3-9.3,11.7c-4.2,14.4-14.3,21.7-29.2,19.6C182.5,374.7,180.3,374.7,178.2,374.5z M55.3,181.8c0,0.1-0.4,0.9-0.9,1.6
		c-8,10.3-6.4,19.8,4.2,27c3.4,2.3,8.2,5.3,8.7,8.5c1.5,10.4,9.4,12.8,16.8,17.9c10,6.9,20,9.7,31.3,13.1
		c12.1,3.6,22.2-2.1,33.2-0.3c1.6,0.3,3.6-2.3,5.6-3.5c2.2-1.3,4.4-3.5,6.6-3.6c13.3-0.2,22.3-7.7,30.1-16.7c2.1-2.4,2.7-5.9,4-8.9
		c-3-0.6-6-1.3-9-1.6c-19.1-2-39.7,0.5-52.6-18.4c-1.1-1.6-5.3-1.5-8.1-1.9c-8.6-1.1-14.2-4.7-16.1-13.8c-0.8-3.9-4.4-8.2-7.9-10.6
		c-11.1-7.3-13.1-11.4-11.5-24.6c0.4-3.4,0.2-8.4-2-10.4c-6.9-6.4-8.6-13.7-7.2-22.4c0.3-1.7-1.2-4.7-2.6-5.3
		c-1.6-0.6-5,0.3-5.9,1.7c-5.7,8.6-10.8,17.5-16.2,26.3c-1.8,3-4.5,5.7-5.3,8.8c-2.4,9.3-5,18.7-5.5,28.2
		C44.8,175.5,51.5,178.6,55.3,181.8z M330.3,165.1c-12.8-1.4-24.1-7-36.9-1c-11.1,5.2-23.8,7.2-35.5,11.5c-5,1.8-9.7,5.2-13.5,8.8
		c-3.9,3.7-1.9,7.4,3.1,8.1c5.6,0.8,11.6-0.7,17,0.6c11.8,2.8,23.5,6.5,35,10.4c1.8,0.6,2.4,4.3,4,6c2.1,2.2,4.6,5.2,7.3,5.7
		c12.7,2.2,16.2,5,17.4,17.6c0.5,5.4,2,8.2,7.6,10.3c11.5,4.3,14.6,11.5,13.2,24.2c-0.3,2.5,1.1,6.5,3.1,7.7
		c9.6,6,11.4,13.8,8.2,23.8c-0.6,1.9,0.2,5.8,1.5,6.5c2.1,1.1,5.9,1.2,7.8,0c2.8-1.8,4.6-5,6.6-7.8c3.1-4.3,6.5-8.4,8.8-13.1
		c4.6-9.3,15.8-16.2,9.3-29.6c-2.2-4.5,1.1-11.3,1.8-17.1c0.3-2.3,1.4-6,0.3-6.8c-7.7-5.8-6.5-13.8-6.9-21.7c-0.2-3-2.2-8.2-3.8-8.3
		c-11.6-1.2-15.8-10.6-22.1-17.5c-9.4-10.3-20.6-13.6-33.4-8.5C330.3,171.8,330.3,168.7,330.3,165.1z M124.8,329.8
		c3.3,4.6,5.8,10.8,8.2,10.8c11.4-0.1,23.8,3,33.9-5.1c6.4-5.1,12.5-10,21.6-9.2c1.8,0.2,5.2-1.8,5.4-3.2
		c1.6-10.4,8.3-16.5,17.2-21.2c1.4-0.7,2.4-3.1,2.7-4.9c1.8-9.4,12.5-16.7,6.7-27.8c-0.3-0.6,0.1-2,0.7-2.7
		c8.7-10.9,0-22.3,0.7-33.4c0-0.7-1.6-1.5-3.3-3.1c-3.1,11.7-18.1,13.4-19.5,25.8c-0.2,1.9-4.4,3.4-6.7,5.2
		c-2.2,1.7-5.2,3.1-6.2,5.3c-3.5,7.4-9.9,9.2-17.3,10.3c-4.2,0.6-8.2,2.8-12.2,4.4c-4.3,1.7-8.4,4.5-12.9,5
		c-8.7,1.1-18.5-4.6-26,4.8c-1.2,1.5-6.3,0.7-9.4,0c-14.1-3.3-26.2-14.7-42.4-9.7c-1.9,0.6-4.4-1.1-6.6-0.9
		c-1.6,0.2-4.6,2.1-4.4,2.6c2.2,7.1-3.5,15.6,4.7,21.8c4,3,6.3,7.9,9.9,11.6c2.1,2.2,4.8,4,7.6,5.3c6.5,3.1,16,4.1,19.1,9.1
		c6.5,10.2,17.7,6.2,25.4,13.3C123.1,338.1,123.9,334.1,124.8,329.8z M382.4,135c-3-10.9-5.1-19.3-7.7-27.5c-0.3-1-2.7-1.4-4-2.2
		c-2.4-1.6-5.6-2.9-6.8-5.2c-4.1-7.6-8.8-13.1-19-12.6c-2.6,0.1-6.4-4.2-8-7.3c-2.4-4.7-5.3-5.7-10.1-4.2c-8.3,2.6-16,1.3-23.2-3.7
		c-1.9-1.3-5.1-2.7-7-2.1c-10.2,3.2-20.2,7.2-30.4,10.7c-6.6,2.3-13.4,4-20,6.1c-1.8,0.6-4.5,1.3-5,2.5c-3.7,9.3-5.8,19.6-18.9,20.9
		c-0.4,0-0.9,1-0.9,1.6c0.3,8.2-5.9,14.4-7.6,21c-3.2,12.5-1,26.4-0.5,39.8c0.1,1.7,3,3.3,5.1,5.4c4.3-5.9,7.2-11.4,11.4-15.6
		c4.3-4.3,12-6.3,14.6-11.1c6.3-11.4,17.2-11.5,27.3-15.9c11-4.7,20.3-10.1,32.7-7c1.7,0.4,4.1-1.6,6.2-2.3
		c10.8-4,21.1-6.1,31.1,2.5c2.4,2,7.1,1.8,10.8,2.1c4.7,0.4,9.5-0.1,14.1,0.5C371.3,131.8,375.8,133.3,382.4,135z M207,33.3
		c-0.1,0.4-0.2,0.7-0.3,1.1c-2.6,0.2-5.3,0-7.8,0.6c-5.7,1.4-11.6,2.6-17,4.9c-3.7,1.6-6.2,6-10,7.2c-8.8,2.7-16.2,6.2-20.1,14.9
		c-1.2,2.7-4.1,4.9-6.5,7c-5.4,4.7-12.9,26.1-11.9,33.2c1.1,7.4,2.6,14.5-5.5,20.5c-5.3,3.9-5.2,10.4-0.3,16
		c2.4,2.8,3.6,6.5,5.6,9.6c6,9.5,12,18.9,18.1,28.3c0.5,0.7,1.7,0.9,2.5,1.4c10.5,5.2,20.9,10.5,31.6,15.4c2.5,1.1,5.6,0.9,8.4,1.2
		c-0.4-3,0-6.3-1.3-8.8c-5.1-9.6-18.4-16.5-9.8-30.4c0.7-1.1-1.3-3.5-1.3-5.4c-0.1-5.1,0.1-10.2,0.5-15.2c0.2-2.8,2.4-5.9,1.6-8.1
		c-3.4-9.6,1.7-16.1,7-23.1c2-2.6,3.1-6.5,2.9-9.7c-0.5-9.1,2.4-17.2,10.6-20.8c8.7-3.8,14.1-8.8,16.5-17.7
		c1.6-6.1,4.5-11.8,6.8-17.7C220.5,36.2,213.7,34.8,207,33.3z"/>
</g>
</svg>
