<?xml version="1.0" encoding="utf-8"?>
<!-- Generator: Adobe Illustrator 22.0.1, SVG Export Plug-In . SVG Version: 6.00 Build 0)  -->
<svg version="1.1" id="Layer_1" xmlns="http://www.w3.org/2000/svg" xmlns:xlink="http://www.w3.org/1999/xlink" x="0px" y="0px"
	 viewBox="0 0 438.5 438.5" style="enable-background:new 0 0 438.5 438.5;" xml:space="preserve">
<style type="text/css">
	.st0{display:none;}
</style>
<path id="path1" class="st0" d="M34.4,412.7c-9.7-2.3-23.8-14.5-39.4-34.2c-31.7-39.9-48.8-84.6-53.9-140.2c-1-10.7-1-37.8,0-47.7
	c4.6-46.8,21-87,51-125.6c9.2-11.8,24.4-27.3,31.7-32.2c10.3-7,16.8-7.5,23.1-2c2.5,2.3,3.1,3.3,3.5,6.2c0.6,5.5-2.2,9.7-15.2,23.1
	C17.1,78.9,8.7,89.3-0.6,104.8c-21.1,35.1-30.1,71.9-28.8,117.8c0.7,24.4,3.3,42.4,9.1,62.4c5.2,18,11.4,32.6,20.7,48.4
	c9.4,15.9,17.2,26,33,42.2c13.8,14.2,17.2,19.1,17.2,24.8c0,5.6-4,10.7-9.6,12.3C37.9,413.5,37.7,413.5,34.4,412.7L34.4,412.7z
	 M398.8,412.9c-2.9-0.6-8.2-6.3-8.8-9.4c-1-5.1,2.1-9.7,16.3-24.4c7-7.2,15.6-16.7,19.1-21.1c25.7-32.1,40-67.8,43.8-109.4
	c1.2-12.8,0.6-46-1.1-58.4c-3.4-26-9.8-47.3-20.7-69.7C436.8,99.1,426,83.9,407.6,65c-12.3-12.7-16-17.3-17.2-21.9
	c-1.2-4.5-0.3-7.9,3-11.7c4.7-5.3,10-5.8,18.3-1.6c10.1,5,23.1,18.1,38.2,38.3c30.5,40.7,46.2,85.6,49.9,142.5
	c3.2,48.4-8.5,97.3-33,137.9c-16.9,28-42.7,56.7-56.5,62.8C406.8,412.7,401.7,413.5,398.8,412.9L398.8,412.9z M94.7,383.4
	c-8.2-2.5-13-10.7-11-19c1.2-5.1,6.4-10.4,11.4-11.6c5-1.3,265.4-1.3,270.4,0c5.1,1.3,10.2,6.6,11.3,11.8c1.5,6.9-1.6,13.9-7.6,17.4
	l-3.2,1.8l-134.6,0.1C157.3,384,95.8,383.8,94.7,383.4L94.7,383.4z M197.3,320.1c-25-9.1-45.8-26.8-56.5-48.1
	c-5.9-11.8-9.4-26.2-9.4-39c0-17.4,6.8-33.9,27.5-67c15.4-24.6,18-29.1,22.6-38.6c6-12.6,8-20.1,8.1-30.6c0.1-10.1-1.4-16.1-6-23.9
	c-3.3-5.6-10.7-13.9-13.7-15.5c-4.9-2.5-5.9-6-2.4-8.3c5.5-3.6,20.6-1.3,34.4,5.2c15.7,7.4,27.2,18.1,34.7,32.1
	c5.8,10.8,8.1,19,12.1,42.6c4.4,26.2,8.7,34.5,17.4,33.5c4.6-0.5,7.5-2.3,9.5-5.8c3.1-5.5,1.8-13.1-4.5-25.6
	c-5.1-10.2-4.8-13.3,1.2-11.7c3.1,0.8,13.2,9.1,20.3,16.5c17.5,18.6,26.3,35.6,30.5,59.1c2.2,12.3,2.4,32.8,0.4,43.5
	c-2.5,13.5-7.6,26.2-14.9,37.1c-8.1,12.1-25,27.5-37.2,33.9c-5.5,2.9-7.5,3.1-10.2,0.9c-3.4-2.7-2.7-4.5,4.8-12.4
	c11.2-11.9,16.9-20.4,20.3-30c5.1-14.8,2.6-35.4-6-48.6c-3.6-5.4-8.8-10.2-11.1-10.2c-1.3,0-1.1,1.7,1.3,10.4
	c0.8,3.1,1.5,6.8,1.5,8.3c0,8-11.3,13.8-21.3,10.9c-8.1-2.4-11.7-9.7-10.6-21.8c0.3-3.7,0.6-10.5,0.7-15.1c0.1-8,0-8.4-2.6-13.5
	c-5-9.8-16.4-19.9-22.6-19.9c-2.7,0-2.9,0.2-2.9,2.1c0,1.3,0.7,2.8,1.9,3.9c6.4,6,7.6,18.2,2.9,29c-2.9,6.7-6.2,10.5-17.5,20.1
	c-14.9,12.6-19.7,18.6-22.6,28.4c-1.4,4.5-1.5,6.4-1.1,14.6c0.6,13.9,3.5,23.1,10.1,32.8c5.1,7.5,11,12.2,19.1,15.2
	c3.9,1.5,4.3,1.8,4.3,3.8c0,2.3-1.7,3.8-4.3,3.7C204.6,322.6,201,321.5,197.3,320.1L197.3,320.1z"/>
<path id="path1_1_" d="M74.3,370.1c-7.6-1.8-18.5-11.3-30.7-26.6c-24.7-31.1-38.1-65.9-42-109.3c-0.8-8.3-0.8-29.5,0-37.2
	c3.6-36.4,16.4-67.8,39.8-97.9c7.2-9.2,19-21.2,24.7-25.1c8-5.4,13.1-5.9,18-1.6c2,1.8,2.4,2.6,2.7,4.8c0.5,4.2-1.7,7.6-11.8,18
	C60.7,109.9,54.2,118,47,130.1c-16.4,27.3-23.4,56.1-22.4,91.8c0.5,19,2.6,33,7.1,48.6c4,14,8.9,25.4,16.2,37.7
	c7.3,12.4,13.4,20.2,25.7,32.9c10.8,11.1,13.4,14.9,13.4,19.3c0,4.4-3.1,8.4-7.5,9.6C77,370.7,76.8,370.7,74.3,370.1L74.3,370.1z
	 M358.2,370.2c-2.3-0.5-6.4-4.9-6.8-7.4c-0.7-4,1.6-7.5,12.7-19c5.4-5.6,12.1-13,14.9-16.5c20-25,31.2-52.8,34.2-85.3
	c0.9-10,0.4-35.8-0.8-45.5c-2.7-20.3-7.6-36.9-16.2-54.3c-8.2-16.7-16.7-28.5-31-43.3c-9.6-9.9-12.4-13.5-13.4-17.1
	c-0.9-3.5-0.3-6.1,2.4-9.1c3.6-4.1,7.8-4.5,14.2-1.3c7.8,3.9,18,14.1,29.8,29.9c23.7,31.8,36,66.7,38.9,111.1
	c2.5,37.7-6.6,75.9-25.8,107.5c-13.2,21.8-33.3,44.2-44,48.9C364.5,370.1,360.5,370.7,358.2,370.2L358.2,370.2z M121.2,347.3
	c-6.4-1.9-10.1-8.4-8.6-14.8c1-4,5-8.1,8.9-9.1c3.9-1,206.8-1,210.8,0c4,1,8,5.1,8.8,9.2c1.1,5.4-1.3,10.8-5.9,13.5l-2.5,1.4
	l-104.9,0.1C170.1,347.7,122.1,347.5,121.2,347.3L121.2,347.3z M201.2,297.9c-19.5-7.1-35.7-20.9-44-37.5
	c-4.6-9.2-7.3-20.4-7.3-30.4c0-13.5,5.3-26.4,21.4-52.2c12-19.2,14.1-22.7,17.6-30.1c4.7-9.8,6.2-15.6,6.3-23.9
	c0.1-7.9-1.1-12.5-4.7-18.6c-2.6-4.3-8.4-10.9-10.7-12.1c-3.8-2-4.6-4.7-1.9-6.5c4.3-2.8,16-1,26.8,4.1c12.2,5.8,21.2,14.1,27.1,25
	c4.5,8.4,6.3,14.8,9.4,33.2c3.4,20.4,6.8,26.9,13.6,26.1c3.6-0.4,5.9-1.8,7.4-4.5c2.4-4.3,1.4-10.2-3.5-20c-4-8-3.8-10.4,0.9-9.1
	c2.4,0.6,10.3,7.1,15.8,12.9c13.7,14.5,20.5,27.7,23.7,46.1c1.7,9.6,1.9,25.6,0.3,33.9c-2,10.5-5.9,20.4-11.6,28.9
	c-6.3,9.5-19.4,21.4-29,26.4c-4.3,2.2-5.8,2.4-7.9,0.7c-2.6-2.1-2.1-3.5,3.7-9.7c8.7-9.3,13.2-15.9,15.8-23.4
	c4-11.5,2-27.6-4.7-37.8c-2.8-4.2-6.8-8-8.7-8c-1,0-0.8,1.3,1,8.1c0.7,2.4,1.2,5.3,1.2,6.5c0,6.2-8.8,10.8-16.6,8.5
	c-6.3-1.8-9.1-7.6-8.2-17c0.3-2.9,0.5-8.2,0.5-11.8c0-6.3,0-6.6-2-10.5c-3.9-7.6-12.8-15.5-17.6-15.5c-2.1,0-2.2,0.1-2.2,1.7
	c0,1,0.6,2.2,1.5,3.1c5,4.7,5.9,14.2,2.2,22.6c-2.3,5.2-4.9,8.2-13.7,15.6c-11.6,9.8-15.3,14.5-17.6,22.1c-1.1,3.5-1.2,5-0.9,11.4
	c0.5,10.8,2.7,18,7.9,25.6c4,5.8,8.6,9.5,14.9,11.9c3,1.1,3.4,1.4,3.4,2.9c0,1.8-1.3,2.9-3.3,2.9C206.9,299.9,204.1,299,201.2,297.9
	L201.2,297.9z"/>
</svg>
