<?xml version="1.0" encoding="utf-8"?>
<!-- Generator: Adobe Illustrator 22.0.1, SVG Export Plug-In . SVG Version: 6.00 Build 0)  -->
<svg version="1.1" id="Layer_1" xmlns="http://www.w3.org/2000/svg" xmlns:xlink="http://www.w3.org/1999/xlink" x="0px" y="0px"
	 viewBox="0 0 437.3 440.2" style="enable-background:new 0 0 437.3 440.2;" xml:space="preserve">
<g>
	<path d="M361.3,0.4c0,102,0,203.9,0.1,305.9c0,2.9,0.8,6,2.2,8.5c18.3,33.9,36.9,67.6,55.1,101.5c1.9,3.6,2.8,8.3,2.3,12.2
		c-0.8,6.1-5.9,9.7-12.5,10.8c-6.3,1.1-11.6-0.9-15.5-5.5c-1.3-1.6-2.3-3.4-3.3-5.2c-8.5-15.5-16.9-31-25.4-46.5
		c-0.7-1.2-1.4-2.4-3-3.4c0,5.8,0,11.6,0,17.3c0,9.2,0,18.3,0,27.5c-0.1,9.6-6.7,16.1-16.2,16.1c-9.4,0-16-6.7-16.1-16.3
		c-0.1-13,0-26-0.7-39.3c-0.7,1.3-1.5,2.6-2.1,3.9c-6.9,13.9-13.8,27.9-20.8,41.8c-3.9,7.6-11.4,11.2-19,9.4
		c-10.3-2.4-15.1-11.6-10.5-21c7.3-15,14.9-30,22.3-44.9c9.7-19.5,19.4-39.1,29-58.7c1-2.1,1.7-4.6,1.7-7c0.1-43,0.1-86.1,0.1-129.1
		c0-2.5-0.4-4.2-3.1-5.5c-2.2-1-3.9-2.9-5.7-4.5C269.6,122.8,218.9,77,168.1,31.2c-1-0.9-2.7-1.5-4-1.5c-25.8-0.1-51.6-0.1-77.4,0
		c-0.5,0-0.9,0.1-2,0.3c0,1.6,0,3.3,0,4.9c0,38,0,76.1,0,114.1c0,3.2-0.6,6.4-1,10c4.8,1.9,10.2,3.8,15.5,6c2.4,1,4.7,2.4,6.7,3.9
		c19.9,15.3,31.6,34.9,37.7,57.7c4.9,18.6,6.9,37.5,8.1,56.4c0.5,7.7-4.4,12.8-12.4,13.6c-9.6,0.9-18-3.8-19.2-11.7
		c-1.7-11.2-2.5-22.5-3.9-33.7c-1.4-10.9-4.2-21.6-10.1-31.7c0,1.4,0,2.8,0,4.2c0,19.6,0.2,39.2-0.1,58.8
		c-0.1,9.4-1.8,18.8-1.4,28.2c1.4,27.3,3.4,54.5,5.3,81.8c0.7,9.5-4.1,15.6-13.5,16.4c-10,0.8-17.6-4.8-18.5-13.9
		c-1.1-11.4-1.8-22.8-2.7-34.2c-0.1-1.5-0.3-3-0.4-4.5c-0.4,0-0.9,0-1.3,0c-1,9.5-2,19-2.9,28.6c-0.3,3-0.2,6-0.7,9
		c-1.5,7.4-8.8,12.2-17.3,11.6c-8.9-0.7-14.9-6.1-14.3-14.1c1.3-16.2,3.6-32.4,5.1-48.6c1.5-15.8,3.5-31.6,3.9-47.4
		c0.5-21.3-0.3-42.6-0.5-63.9c0-0.8-0.1-1.6-0.2-3.6c-6.2,11.2-10.5,21.8-12,32.9c-1.1,7.9-1.2,15.9-1.1,23.9
		c0.2,10.6-3.7,15.8-13.2,16.3C9.9,301.3,2,295,1.1,285.6c-2.3-23.1,3.1-45,13.9-65.7c5.8-11.2,12.9-21.9,19.6-33.1
		c-13.7-2.3-24.1-9.3-29.2-21.6c-3.8-9.1-3-18.3,2.2-26.9c6.2-10.1,15.6-15.8,28.3-17.1c12.8-1.4,22.9,3.3,32.3,11.6
		c0-34.6,0-68.6,0-103.1c-8.3,0-16.4,0-24.6,0c-2.5,0-5.1,0.1-7.6-0.1c-7.5-0.6-13.6-5.5-14.8-11.9c-1.2-6.6,2.5-12.8,9.4-15.8
		c1-0.4,1.9-0.9,2.9-1.3C142.7,0.4,252,0.4,361.3,0.4z M214.6,29.8c37.9,34.3,76.4,69,114.3,103.2c0-33.7,0-68.3,0-103.2
		C290.2,29.8,251.7,29.8,214.6,29.8z"/>
</g>
</svg>
