<?xml version="1.0" encoding="utf-8"?>
<!-- Generator: Adobe Illustrator 22.0.1, SVG Export Plug-In . SVG Version: 6.00 Build 0)  -->
<svg version="1.1" id="Layer_1" xmlns="http://www.w3.org/2000/svg" xmlns:xlink="http://www.w3.org/1999/xlink" x="0px" y="0px"
	 viewBox="0 0 438.5 427.8" style="enable-background:new 0 0 438.5 427.8;" xml:space="preserve">
<g>
	<path d="M116.7,70.8c25.9,0,50.5,0,75.1,0c13.9,0,27.9,0.5,41.8-0.1c14.5-0.6,28.3-1,34.3,22.7c8.9-28.5,27.9-22.4,44.6-22.6
		c22.5-0.2,45.1-1.3,67.4,0.5c13,1.1,26.4,5.5,38.2,11.5c12.7,6.5,19,19,19,34.8c-0.2,86.6-0.2,173.1,0,259.7
		c0,17.7-8.5,29.6-22.5,37.2c-23.9,13.1-48.5,13.1-72.5,0.3c-15.2-8.1-23.7-21.1-23.1-39.8c0.2-6.5,0-13.1,0-21.7
		c-5.6,0-10.4,0-15.1,0c-55.7,0-111.5-0.2-167.2,0.1c-15,0.1-30,1.8-35-16c-7.9,5.6-14.8,14.5-22.4,15.2c-23.7,2.2-48.7,3.3-67.3-16
		c-6.9-7.2-12.6-19.3-12.7-29.3c-1-86.6-0.5-173.1-0.7-259.7c0-16.3,6.7-28.3,19.6-36.1c25.3-15.3,51.3-15.6,77-1.1
		c14.1,8,21.7,20.7,21.3,38C116.6,55.4,116.7,62.3,116.7,70.8z M99.8,302.3c4.7,7.2,8.6,11.9,11.1,17.4c5.9,13,15,16.8,28.8,16.6
		c54.4-0.9,108.8-0.4,163.2-0.4c4.8,0,9.6,0,16.3,0c0-7.1,0-12.6,0-18.1c0-63,0-126.1,0-189.1c0-4.2-0.7-8.8,0.4-12.6
		c1.1-3.5,4.5-8.8,6.5-8.6c3.5,0.3,7.4,3.7,9.7,6.9c3.3,4.7,4.3,11.6,8.2,15.4c16,15.6,50.9,15.5,67.9,0.7
		c11.1-9.7,12.1-22.7-0.2-30.4c-10-6.2-22.3-10.5-33.8-11.2c-26-1.6-52.1-1-78.2-0.1c-5.1,0.2-11.2,4.3-14.9,8.5
		c-6.1,7-10.7,15.6-16.5,24.2c-4.8-7.3-9.3-12.7-12.2-19c-5.4-11.8-13.8-14.6-25.8-14.4c-50.3,0.7-100.7,0.9-151,0
		c-21.1-0.4-42.1-3.9-64.1-6c0.9-2.8,0.4-1.9,0.4-1.1c-0.1,75.3-0.1,150.6,0,225.8c0,4,0.9,8.8,3.1,11.9
		c11,15.1,27.2,15.9,43.5,17.7C76,337.7,83,331,88.7,319.8C91.6,314.1,95.5,309,99.8,302.3z M337,147.8c-0.3,5.3-0.6,9.4-0.6,13.5
		c0,70.1,0,140.3,0,210.4c0,17.7,4.4,24.2,20.4,30.4c14.5,5.6,29,5.6,43.5-0.2c15.5-6.2,20.3-13.3,20.3-30.6c0-66.8,0-133.7,0-200.5
		c0-7.4,0-14.7,0-24C392.1,163,364.9,162.5,337,147.8z M99.4,70.1c-1.1-14.2,5-28.7-6.8-40.3c-16-15.6-52.3-15.9-69-0.7
		c-10.8,9.8-11.1,22,0.8,30.6c6.8,4.9,15.2,9.2,23.2,9.9C64.4,71.1,81.4,70.1,99.4,70.1z"/>
	<path d="M142.4,150.1c6.4-7.2,9.7-10.9,13.4-15.1c7.2,7.1,13.3,13.1,21.2,20.9c5.1-7.4,10-14.6,16.3-23.9
		c5.9,7.1,9.3,11.2,13.1,15.8c-6.1,6.7-11.8,13-18.1,20c6,6.6,11.8,13,19.1,21c-4.2,3.5-8.3,6.8-14.1,11.6
		c-4.7-6.6-9.8-13.8-16.8-23.7c-6.8,10.2-11.6,17.5-17.2,25.8c-6.4-6.4-10.2-10.2-15.7-15.7c7.5-5.8,14.3-11.1,23.7-18.5
		C157.5,161.3,150.5,156.2,142.4,150.1z"/>
	<path d="M73.5,233c-3.3-6.3-6.7-9.9-6.4-13.2c0.2-2.7,5.6-7.6,7.3-7c3.3,1.1,7.5,5.2,7.8,8.4C82.5,224.1,77.9,227.4,73.5,233z"/>
	<path d="M170.6,273.5c-5.6,4.3-9.1,8.8-11.8,8.4c-3.1-0.5-6.7-5.1-7.6-8.6c-0.5-1.7,4.5-7.1,7.2-7.2
		C161.5,265.9,164.8,269.7,170.6,273.5z"/>
	<path d="M226,261.6c4,5.9,7.8,9.1,7.8,12.4c0.1,2.8-4.8,8.4-6.5,8c-3.4-0.8-8-4.3-8.7-7.5C218.1,271.6,222.3,267.7,226,261.6z"/>
	<path d="M282.2,272.8c5.9-3.4,9.4-6.9,12.7-6.7c2.5,0.1,7,5.8,6.5,7.7c-0.9,3.4-5,8-7.8,8.1C290.6,282,287.4,277.3,282.2,272.8z"/>
	<path d="M136.7,167.7c-5,3.9-8.3,8.4-10.7,7.9c-3.3-0.6-7.3-4.6-8.2-8c-0.5-2,4.4-7.9,6.7-7.9C127.9,159.9,131.2,163.8,136.7,167.7
		z"/>
	<path d="M102.4,185.9c-4.8,3.8-8.3,8.4-10.5,7.8c-3.4-0.9-5.9-5.4-8.7-8.3c3-2.7,5.8-6.9,9.2-7.6
		C94.6,177.3,97.8,181.9,102.4,185.9z"/>
	<path d="M102.4,257c-5,3.6-8.6,8-10.8,7.3c-3.4-1.1-5.7-5.6-8.5-8.6c3.1-2.6,6-6.7,9.5-7.2C94.9,248.1,97.9,252.9,102.4,257z"/>
	<path d="M137.1,273c-5.7,4.4-8.8,8.5-12.2,8.8c-2.3,0.2-7-4.7-7.2-7.6c-0.2-2.8,3.9-8.1,6.3-8.2C127.4,265.9,131,269.5,137.1,273z"
		/>
	<path d="M204.6,273.1c-5.7,4.4-8.8,8.5-12.2,8.8c-2.3,0.2-7-4.7-7.1-7.6c-0.2-2.8,3.9-8.1,6.4-8.2
		C195,265.9,198.5,269.5,204.6,273.1z"/>
	<path d="M271.5,274.9c-5.6,3.4-9.2,7.1-12.5,6.9c-2.4-0.1-6.9-6.4-6.3-8.3c1.2-3.3,5.4-7,8.7-7.4
		C263.9,265.8,266.8,270.6,271.5,274.9z"/>
</g>
</svg>
